<svg xmlns="http://www.w3.org/2000/svg" xmlns:xlink="http://www.w3.org/1999/xlink" contentStyleType="text/css" data-diagram-type="ACTIVITY" height="759px" preserveAspectRatio="none" style="width:764px;height:759px;background:#FFFFFF;" version="1.1" viewBox="0 0 764 759" width="764px" zoomAndPan="magnify"><title>Diagrama de flujo - Programa Operaciones</title><defs/><g><text fill="#000000" font-family="sans-serif" font-size="14" font-weight="bold" lengthAdjust="spacing" textLength="336.7178" x="212.5093" y="32.9951">Diagrama de flujo - Programa Operaciones</text><ellipse cx="448.3589" cy="57.2969" fill="#222222" rx="10" ry="10" style="stroke:#222222;stroke-width:1;"/><rect fill="none" height="198.8398" style="stroke:#000000;stroke-width:1.5;" width="406.2837" x="347.4526" y="77.2969"/><path d="M547.6763,77.2969 L547.6763,86.5938 L537.6763,96.5938 L347.4526,96.5938" fill="none" style="stroke:#000000;stroke-width:1.5;"/><text fill="#000000" font-family="sans-serif" font-size="14" lengthAdjust="spacing" textLength="190.2236" x="350.4526" y="91.292">Declaraci&#243;n e Inicializaci&#243;n</text><path d="M559.2651,112.8633 L559.2651,136.5625 L539.2651,140.5625 L559.2651,144.5625 L559.2651,168.2617 A0,0 0 0 0 559.2651,168.2617 L743.7363,168.2617 A0,0 0 0 0 743.7363,168.2617 L743.7363,122.8633 L733.7363,112.8633 L559.2651,112.8633 A0,0 0 0 0 559.2651,112.8633" fill="#FEFFDD" style="stroke:#181818;stroke-width:0.5;"/><path d="M733.7363,112.8633 L733.7363,122.8633 L743.7363,122.8633 L733.7363,112.8633" fill="#FEFFDD" style="stroke:#181818;stroke-width:0.5;"/><text fill="#000000" font-family="sans-serif" font-size="13" lengthAdjust="spacing" textLength="163.4712" x="565.2651" y="129.9302">Aqu&#237; reservamos espacio</text><text fill="#000000" font-family="sans-serif" font-size="13" lengthAdjust="spacing" textLength="153.4419" x="565.2651" y="145.063">para nuestras variables</text><text fill="#000000" font-family="sans-serif" font-size="13" lengthAdjust="spacing" textLength="99.6201" x="565.2651" y="160.1958">de operaciones</text><rect fill="#F1F1F1" height="47.9375" rx="12.5" ry="12.5" style="stroke:#181818;stroke-width:0.5;" width="181.8125" x="357.4526" y="116.5938"/><text fill="#000000" font-family="sans-serif" font-size="12" lengthAdjust="spacing" textLength="109.6055" x="367.4526" y="137.7324">Declarar variables</text><text fill="#000000" font-family="sans-serif" font-size="12" lengthAdjust="spacing" textLength="161.8125" x="367.4526" y="151.7012">(float Op1, Op2, Op3, Op4)</text><path d="M521.522,206.0664 L521.522,222.1992 L501.522,226.1992 L521.522,230.1992 L521.522,246.332 A0,0 0 0 0 521.522,246.332 L691.1714,246.332 A0,0 0 0 0 691.1714,246.332 L691.1714,216.0664 L681.1714,206.0664 L521.522,206.0664 A0,0 0 0 0 521.522,206.0664" fill="#FEFFDD" style="stroke:#181818;stroke-width:0.5;"/><path d="M681.1714,206.0664 L681.1714,216.0664 L691.1714,216.0664 L681.1714,206.0664" fill="#FEFFDD" style="stroke:#181818;stroke-width:0.5;"/><text fill="#000000" font-family="sans-serif" font-size="13" lengthAdjust="spacing" textLength="134.6973" x="527.522" y="223.1333">Asignamos valores a</text><text fill="#000000" font-family="sans-serif" font-size="13" lengthAdjust="spacing" textLength="148.6494" x="527.522" y="238.2661">las variables auxiliares</text><rect fill="#F1F1F1" height="75.875" rx="12.5" ry="12.5" style="stroke:#181818;stroke-width:0.5;" width="106.3262" x="395.1958" y="188.2617"/><text fill="#000000" font-family="sans-serif" font-size="12" lengthAdjust="spacing" textLength="57.0176" x="405.1958" y="209.4004">Inicializar</text><text fill="#000000" font-family="sans-serif" font-size="12" lengthAdjust="spacing" textLength="86.3262" x="405.1958" y="223.3691">valor1 = 10.0f</text><text fill="#000000" font-family="sans-serif" font-size="12" lengthAdjust="spacing" textLength="78.6914" x="405.1958" y="237.3379">valor2 = 5.0f</text><text fill="#000000" font-family="sans-serif" font-size="12" lengthAdjust="spacing" textLength="78.6914" x="405.1958" y="251.3066">valor3 = 2.0f</text><rect fill="none" height="300.0469" style="stroke:#000000;stroke-width:1.5;" width="554.4575" x="11" y="286.1367"/><path d="M108.7871,286.1367 L108.7871,295.4336 L98.7871,305.4336 L11,305.4336" fill="none" style="stroke:#000000;stroke-width:1.5;"/><text fill="#000000" font-family="sans-serif" font-size="14" lengthAdjust="spacing" textLength="87.7871" x="14" y="300.1318">Operaciones</text><path d="M82.1733,333.8359 L82.1733,358.9688 A0,0 0 0 0 82.1733,358.9688 L325.7983,358.9688 A0,0 0 0 0 325.7983,358.9688 L325.7983,351.8359 L345.7983,346.4023 L325.7983,343.8359 L325.7983,343.8359 L315.7983,333.8359 L82.1733,333.8359 A0,0 0 0 0 82.1733,333.8359" fill="#FEFFDD" style="stroke:#181818;stroke-width:0.5;"/><path d="M315.7983,333.8359 L315.7983,343.8359 L325.7983,343.8359 L315.7983,333.8359" fill="#FEFFDD" style="stroke:#181818;stroke-width:0.5;"/><text fill="#000000" font-family="sans-serif" font-size="13" lengthAdjust="spacing" textLength="222.625" x="88.1733" y="350.9028">Primera operaci&#243;n:\nSuma y resta</text><rect fill="#F1F1F1" height="47.9375" rx="12.5" ry="12.5" style="stroke:#181818;stroke-width:0.5;" width="205.1211" x="345.7983" y="322.4336"/><text fill="#000000" font-family="sans-serif" font-size="12" lengthAdjust="spacing" textLength="185.1211" x="355.7983" y="343.5723">Op1 = valor1 + valor2 - valor3</text><text fill="#000000" font-family="sans-serif" font-size="12" lengthAdjust="spacing" textLength="148.2949" x="355.7983" y="357.541">(10.0 + 5.0) - 2.0 = 13.0</text><path d="M42.709,401.7734 L42.709,426.9063 A0,0 0 0 0 42.709,426.9063 L323.144,426.9063 A0,0 0 0 0 323.144,426.9063 L323.144,419.7734 L343.144,414.3398 L323.144,411.7734 L323.144,411.7734 L313.144,401.7734 L42.709,401.7734 A0,0 0 0 0 42.709,401.7734" fill="#FEFFDD" style="stroke:#181818;stroke-width:0.5;"/><path d="M313.144,401.7734 L313.144,411.7734 L323.144,411.7734 L313.144,401.7734" fill="#FEFFDD" style="stroke:#181818;stroke-width:0.5;"/><text fill="#000000" font-family="sans-serif" font-size="13" lengthAdjust="spacing" textLength="259.4351" x="48.709" y="418.8403">Segunda operaci&#243;n:\nResta y multiplica</text><rect fill="#F1F1F1" height="47.9375" rx="12.5" ry="12.5" style="stroke:#181818;stroke-width:0.5;" width="210.4297" x="343.144" y="390.3711"/><text fill="#000000" font-family="sans-serif" font-size="12" lengthAdjust="spacing" textLength="190.4297" x="353.144" y="411.5098">Op2 = (valor2 - valor3) * valor1</text><text fill="#000000" font-family="sans-serif" font-size="12" lengthAdjust="spacing" textLength="144.2402" x="353.144" y="425.4785">(5.0 - 2.0) * 10.0 = 30.0</text><path d="M21,469.7109 L21,494.8438 A0,0 0 0 0 21,494.8438 L326.9907,494.8438 A0,0 0 0 0 326.9907,494.8438 L326.9907,487.7109 L346.9907,482.2773 L326.9907,479.7109 L326.9907,479.7109 L316.9907,469.7109 L21,469.7109 A0,0 0 0 0 21,469.7109" fill="#FEFFDD" style="stroke:#181818;stroke-width:0.5;"/><path d="M316.9907,469.7109 L316.9907,479.7109 L326.9907,479.7109 L316.9907,469.7109" fill="#FEFFDD" style="stroke:#181818;stroke-width:0.5;"/><text fill="#000000" font-family="sans-serif" font-size="13" lengthAdjust="spacing" textLength="284.9907" x="27" y="486.7778">Tercera operaci&#243;n:\nMultiplicaci&#243;n sucesiva</text><rect fill="#F1F1F1" height="47.9375" rx="12.5" ry="12.5" style="stroke:#181818;stroke-width:0.5;" width="202.7363" x="346.9907" y="458.3086"/><text fill="#000000" font-family="sans-serif" font-size="12" lengthAdjust="spacing" textLength="182.7363" x="356.9907" y="479.4473">Op3 = valor1 * valor2 * valor3</text><text fill="#000000" font-family="sans-serif" font-size="12" lengthAdjust="spacing" textLength="153.5449" x="356.9907" y="493.416">(10.0 * 5.0) * 2.0 = 100.0</text><path d="M67.8662,537.6484 L67.8662,562.7813 A0,0 0 0 0 67.8662,562.7813 L321.2603,562.7813 A0,0 0 0 0 321.2603,562.7813 L321.2603,555.6484 L341.2603,550.2148 L321.2603,547.6484 L321.2603,547.6484 L311.2603,537.6484 L67.8662,537.6484 A0,0 0 0 0 67.8662,537.6484" fill="#FEFFDD" style="stroke:#181818;stroke-width:0.5;"/><path d="M311.2603,537.6484 L311.2603,547.6484 L321.2603,547.6484 L311.2603,537.6484" fill="#FEFFDD" style="stroke:#181818;stroke-width:0.5;"/><text fill="#000000" font-family="sans-serif" font-size="13" lengthAdjust="spacing" textLength="232.394" x="73.8662" y="554.7153">Cuarta operaci&#243;n:\nDivisi&#243;n y suma</text><rect fill="#F1F1F1" height="47.9375" rx="12.5" ry="12.5" style="stroke:#181818;stroke-width:0.5;" width="214.1973" x="341.2603" y="526.2461"/><text fill="#000000" font-family="sans-serif" font-size="12" lengthAdjust="spacing" textLength="194.1973" x="351.2603" y="547.3848">Op4 = (valor3 / valor1) + valor2</text><text fill="#000000" font-family="sans-serif" font-size="12" lengthAdjust="spacing" textLength="140.373" x="351.2603" y="561.3535">(2.0 / 10.0) + 5.0 = 5.2</text><rect fill="none" height="110.2031" style="stroke:#000000;stroke-width:1.5;" width="363.6226" x="364.1812" y="596.1836"/><path d="M416.8921,596.1836 L416.8921,605.4805 L406.8921,615.4805 L364.1812,615.4805" fill="none" style="stroke:#000000;stroke-width:1.5;"/><text fill="#000000" font-family="sans-serif" font-size="14" lengthAdjust="spacing" textLength="42.7109" x="367.1812" y="610.1787">Salida</text><path d="M542.5366,635.7344 L542.5366,659.4336 L522.5366,663.4336 L542.5366,667.4336 L542.5366,691.1328 A0,0 0 0 0 542.5366,691.1328 L717.8037,691.1328 A0,0 0 0 0 717.8037,691.1328 L717.8037,645.7344 L707.8037,635.7344 L542.5366,635.7344 A0,0 0 0 0 542.5366,635.7344" fill="#FEFFDD" style="stroke:#181818;stroke-width:0.5;"/><path d="M707.8037,635.7344 L707.8037,645.7344 L717.8037,645.7344 L707.8037,635.7344" fill="#FEFFDD" style="stroke:#181818;stroke-width:0.5;"/><text fill="#000000" font-family="sans-serif" font-size="13" lengthAdjust="spacing" textLength="154.2671" x="548.5366" y="652.8013">Mostramos por pantalla</text><text fill="#000000" font-family="sans-serif" font-size="13" lengthAdjust="spacing" textLength="145.1899" x="548.5366" y="667.9341">los valores de entrada</text><text fill="#000000" font-family="sans-serif" font-size="13" lengthAdjust="spacing" textLength="79.8345" x="548.5366" y="683.0669">y resultados</text><rect fill="#F1F1F1" height="61.9063" rx="12.5" ry="12.5" style="stroke:#181818;stroke-width:0.5;" width="148.3555" x="374.1812" y="632.4805"/><text fill="#000000" font-family="sans-serif" font-size="12" lengthAdjust="spacing" textLength="51.0703" x="384.1812" y="653.6191">Imprimir</text><text fill="#000000" font-family="sans-serif" font-size="12" lengthAdjust="spacing" textLength="128.3555" x="384.1812" y="667.5879">valor1, valor2, valor3</text><text fill="#000000" font-family="sans-serif" font-size="12" lengthAdjust="spacing" textLength="121.6758" x="384.1812" y="681.5566">Op1, Op2, Op3, Op4</text><ellipse cx="448.3589" cy="737.3867" fill="none" rx="11" ry="11" style="stroke:#222222;stroke-width:1;"/><ellipse cx="448.3589" cy="737.3867" fill="#222222" rx="6" ry="6" style="stroke:#222222;stroke-width:1;"/><line style="stroke:#181818;stroke-width:1;" x1="448.3589" x2="448.3589" y1="164.5313" y2="188.2617"/><polygon fill="#181818" points="444.3589,178.2617,448.3589,188.2617,452.3589,178.2617,448.3589,182.2617" style="stroke:#181818;stroke-width:1;"/><line style="stroke:#181818;stroke-width:1;" x1="448.3589" x2="448.3589" y1="67.2969" y2="116.5938"/><polygon fill="#181818" points="444.3589,106.5938,448.3589,116.5938,452.3589,106.5938,448.3589,110.5938" style="stroke:#181818;stroke-width:1;"/><line style="stroke:#181818;stroke-width:1;" x1="448.3589" x2="448.3589" y1="370.3711" y2="390.3711"/><polygon fill="#181818" points="444.3589,380.3711,448.3589,390.3711,452.3589,380.3711,448.3589,384.3711" style="stroke:#181818;stroke-width:1;"/><line style="stroke:#181818;stroke-width:1;" x1="448.3589" x2="448.3589" y1="438.3086" y2="458.3086"/><polygon fill="#181818" points="444.3589,448.3086,448.3589,458.3086,452.3589,448.3086,448.3589,452.3086" style="stroke:#181818;stroke-width:1;"/><line style="stroke:#181818;stroke-width:1;" x1="448.3589" x2="448.3589" y1="506.2461" y2="526.2461"/><polygon fill="#181818" points="444.3589,516.2461,448.3589,526.2461,452.3589,516.2461,448.3589,520.2461" style="stroke:#181818;stroke-width:1;"/><line style="stroke:#181818;stroke-width:1;" x1="448.3589" x2="448.3589" y1="264.1367" y2="322.4336"/><polygon fill="#181818" points="444.3589,312.4336,448.3589,322.4336,452.3589,312.4336,448.3589,316.4336" style="stroke:#181818;stroke-width:1;"/><line style="stroke:#181818;stroke-width:1;" x1="448.3589" x2="448.3589" y1="574.1836" y2="632.4805"/><polygon fill="#181818" points="444.3589,622.4805,448.3589,632.4805,452.3589,622.4805,448.3589,626.4805" style="stroke:#181818;stroke-width:1;"/><line style="stroke:#181818;stroke-width:1;" x1="448.3589" x2="448.3589" y1="694.3867" y2="726.3867"/><polygon fill="#181818" points="444.3589,716.3867,448.3589,726.3867,452.3589,716.3867,448.3589,720.3867" style="stroke:#181818;stroke-width:1;"/><!--SRC=[TPEnRjim48PtFSKXKwGwYMmbIu8CHRra21hK7RrS9DgzWY8LaXAI5dsaJds4l5YF52qvYW8OX7ca-7_yxwSZ9mMi2VS6QuHAm4wsFpMSmOFHVUrh8moMf9MmIM8T6fSa3O_ak0OdQr5Az1jU_oaGSAUe99Jqgw-SmEy4u3fkCj2X8NoKmcxLwKvgT7pySi73oW-57oxJ6_w4Vqex0ORsFnnF03u_jQz_mGWhJ8UrjY1iuxd28WCXg5POPz2EAc6DBwMFxW0WL1KEJppQ26osgaEfpH9kOPcVvxiuN_7yQfmMF5tnz2QPORIqLm4kR1KMCDJbCHHW-qoIqBo5-VF6rYFNeuTi52j7mayGqSxwFmNxwPbvWL5JBZEYlqTnde-WKknwpWT3DPz_y8KRTRrLcvQx_U8TTZXrYHl4fvrEH5F88X3Bisulwwk1vHQAV5P-8_QjgYRotxmkwzUjTDH8AcSWYj61xE10Dd4Wwnt83WxaympVXIdVMN0_QFTvjcqfB7Kp99U37GLSHAPqQ0kpUFMBu4FQDoMaQ3L3ygNbjaz0rjIH3GWl357Znq7PS7OhZ1cvgnlkB0r9NaIUnU3H- -Ssb-DxxH-Ipt6Z3JykvL3A6EMZSFFB4eetLlrIo0uxY9MU9jiwtVm7]--></g></svg>